<svg xmlns="http://www.w3.org/2000/svg" viewBox="0 0 24 24" fill="#FFFFFF" aria-hidden="true">
  <path d="M12 7.1a4.9 4.9 0 1 0 0 9.8 4.9 4.9 0 0 0 0-9.8Zm0 8.02a3.12 3.12 0 1 1 0-6.24 3.12 3.12 0 0 1 0 6.24Z"></path>
  <path d="M16.9 2H7.1A5.1 5.1 0 0 0 2 7.1v9.8A5.1 5.1 0 0 0 7.1 22h9.8A5.1 5.1 0 0 0 22 16.9V7.1A5.1 5.1 0 0 0 16.9 2Zm3.3 14.9a3.3 3.3 0 0 1-3.3 3.3H7.1a3.3 3.3 0 0 1-3.3-3.3V7.1a3.3 3.3 0 0 1 3.3-3.3h9.8a3.3 3.3 0 0 1 3.3 3.3v9.8Z"></path>
  <circle cx="17.6" cy="6.4" r="1.4"></circle>
</svg>
