<svg xmlns="http://www.w3.org/2000/svg" viewBox="0 0 24 24" fill="#FFFFFF" aria-hidden="true">
  <path d="M20.52 3.48A11.94 11.94 0 0 0 12 0C5.37 0 0 5.37 0 12c0 2.11.55 4.16 1.59 5.98L0 24l6.2-1.62A12 12 0 1 0 20.52 3.48ZM12 2.4a9.6 9.6 0 1 1 0 19.2 9.55 9.55 0 0 1-4.9-1.34l-.35-.2-3.69.97.99-3.6-.23-.37A9.53 9.53 0 0 1 2.4 12 9.6 9.6 0 0 1 12 2.4Zm5.06 11.36c-.07-.12-.25-.2-.52-.35-.28-.15-1.63-.8-1.88-.89-.25-.09-.43-.14-.61.14-.18.28-.7.89-.86 1.07-.16.18-.32.2-.6.07-.28-.13-1.17-.43-2.23-1.38-.82-.73-1.38-1.63-1.54-1.9-.16-.27-.02-.42.12-.56.13-.13.28-.32.42-.48.14-.16.18-.27.27-.45.09-.18.05-.34-.02-.48-.07-.14-.61-1.48-.84-2.03-.22-.53-.45-.46-.61-.47l-.52-.01c-.18 0-.48.07-.73.34-.25.27-.96.94-.96 2.3s.98 2.66 1.12 2.84c.14.18 1.93 2.95 4.68 4.15.65.28 1.16.45 1.55.57.65.21 1.23.18 1.69.11.52-.08 1.63-.66 1.86-1.3.23-.64.23-1.19.16-1.31Z"></path>
</svg>
